<svg width="123" height="104" viewBox="0 0 123 104" fill="none" xmlns="http://www.w3.org/2000/svg">
<g clip-path="url(#clip0_823_686)">
<path fill-rule="evenodd" clip-rule="evenodd" d="M117.4 0H5.47C2.46 0 0 2.46 0 5.47V98.05C0 101.06 2.46 103.52 5.47 103.52H117.4C120.41 103.52 122.87 101.06 122.87 98.05V5.47C122.87 2.46 120.41 0 117.4 0ZM49.63 56.97L31.84 38.55L26.81 43.6L42.46 59.16L26.61 75.31L31.68 80.31L49.65 61.26L51.77 59.1L49.63 56.97ZM43.97 15.61C43.97 12.42 41.38 9.83 38.19 9.83C35 9.83 32.41 12.42 32.41 15.61C32.41 18.8 35 21.39 38.19 21.39C41.38 21.39 43.97 18.8 43.97 15.61ZM24.73 15.61C24.73 12.42 22.14 9.83 18.95 9.83C15.75 9.83 13.17 12.42 13.17 15.61C13.17 18.8 15.76 21.39 18.95 21.39C22.14 21.39 24.73 18.8 24.73 15.61ZM115.4 5.41H7.49C6.34 5.41 5.4 6.35 5.4 7.5V25.82H117.49V7.5C117.49 6.35 116.55 5.41 115.4 5.41ZM52.1418 65.8847V91.0847H67.9458V88.3487H55.1658V65.8847H52.1418ZM76.3917 89.9687C77.7837 91.0007 79.3677 91.5167 81.1437 91.5167C82.8237 91.5167 84.1437 91.1327 85.1037 90.3647C86.0877 89.5967 86.8317 88.5647 87.3357 87.2687H87.4797L87.7317 91.0847H90.5037V77.8727H81.7917V80.4647H87.4077C87.3597 81.8087 87.1077 83.1167 86.6517 84.3887C86.2197 85.6367 85.5717 86.6687 84.7077 87.4847C83.8437 88.2767 82.7397 88.6727 81.3957 88.6727C79.5237 88.6727 77.9997 87.7847 76.8237 86.0087C75.6477 84.2327 75.0597 81.7247 75.0597 78.4847C75.0597 75.2927 75.6477 72.7967 76.8237 70.9967C77.9997 69.1967 79.6197 68.2967 81.6837 68.2967C83.1237 68.2967 84.2757 68.7527 85.1397 69.6647C86.0277 70.5527 86.5917 71.7167 86.8317 73.1567H90.1797C89.8917 70.8047 88.9917 68.9327 87.4797 67.5407C85.9917 66.1487 84.0597 65.4527 81.6837 65.4527C79.6917 65.4527 77.9637 65.9807 76.4997 67.0367C75.0597 68.0927 73.9437 69.5927 73.1517 71.5367C72.3597 73.4807 71.9637 75.7967 71.9637 78.4847C71.9637 81.1967 72.3477 83.5247 73.1157 85.4687C73.9077 87.4127 74.9997 88.9127 76.3917 89.9687ZM95.1336 65.8847V91.0847H98.1576V80.7527H102.874H103.054L108.13 91.0847H111.73L106.258 80.3207C108.01 79.8167 109.306 78.9407 110.146 77.6927C111.01 76.4207 111.442 74.9567 111.442 73.3007C111.442 71.8847 111.13 70.6247 110.506 69.5207C109.882 68.3927 108.934 67.5047 107.662 66.8567C106.414 66.2087 104.818 65.8847 102.874 65.8847H95.1336ZM102.766 77.9807H98.1576V68.6207H102.73C104.722 68.6207 106.15 69.0407 107.014 69.8807C107.902 70.7207 108.346 71.8607 108.346 73.3007C108.346 74.6687 107.89 75.7967 106.978 76.6847C106.09 77.5487 104.686 77.9807 102.766 77.9807Z" fill="#48C1E7"/>
</g>
<defs>
<clipPath id="clip0_823_686">
<rect width="122.88" height="103.53" fill="white"/>
</clipPath>
</defs>
</svg>
