<svg width="200" height="200" viewBox="0 0 200 200" fill="none" xmlns="http://www.w3.org/2000/svg">
<rect width="200" height="200" fill="#636890"/>
<path d="M159.257 96.9317L103.959 26.799C103.489 26.2003 102.888 25.716 102.202 25.383C101.516 25.05 100.763 24.877 100 24.877C99.237 24.877 98.484 25.05 97.7981 25.383C97.1122 25.716 96.5114 26.2003 96.0412 26.799L40.7432 96.9317C40.0392 97.8005 39.6553 98.8834 39.6553 100C39.6553 101.117 40.0392 102.199 40.7432 103.068L96.0412 173.201C96.5114 173.8 97.1122 174.284 97.7981 174.617C98.484 174.95 99.237 175.123 100 175.123C100.763 175.123 101.516 174.95 102.202 174.617C102.888 174.284 103.489 173.8 103.959 173.201L159.257 103.068C159.961 102.199 160.345 101.117 160.345 100C160.345 98.8834 159.961 97.8005 159.257 96.9317V96.9317ZM105.027 44.3322L147.38 98.0588L105.027 117.283V44.3322ZM94.9729 117.283L52.6197 98.0588L94.9729 44.3322V117.283ZM94.9729 128.304V155.668L61.4171 113.087L94.9729 128.304ZM105.027 128.304L138.583 113.087L105.027 155.668V128.304Z" fill="white"/>
</svg>
