<svg width="200" height="200" viewBox="0 0 200 200" fill="none" xmlns="http://www.w3.org/2000/svg">
<rect width="200" height="200" fill="#5D28A0"/>
<path d="M149.126 127.587L150.522 131.047C151.933 130.478 152.857 129.109 152.857 127.587H149.126ZM101.158 146.938L99.8338 150.425C100.712 150.759 101.683 150.749 102.554 150.397L101.158 146.938ZM50.1922 127.587H46.4616C46.4616 129.137 47.4194 130.525 48.868 131.075L50.1922 127.587ZM53.9229 97.6071C53.9229 95.5467 52.2526 93.8765 50.1922 93.8765C48.1318 93.8765 46.4616 95.5467 46.4616 97.6071H53.9229ZM100.25 53.0623L101.569 56.552C103.254 55.915 104.243 54.1644 103.92 52.3919C103.596 50.6194 102.052 49.3316 100.25 49.3316V53.0623ZM35.7476 77.4388L34.4287 73.949C33.0113 74.4847 32.0587 75.8245 32.0182 77.3392C31.9778 78.8539 32.8575 80.2426 34.2443 80.8532L35.7476 77.4388ZM99.9444 105.702L98.4412 109.117C99.3983 109.538 100.488 109.539 101.446 109.118L99.9444 105.702ZM99.94 53.0623V49.3316C98.1388 49.3316 96.5949 50.6185 96.2704 52.3901C95.9459 54.1618 96.9335 55.9124 98.6177 56.5507L99.94 53.0623ZM164.252 77.4388L165.753 80.8541C167.14 80.2446 168.021 78.8567 167.982 77.3422C167.942 75.8277 166.991 74.4873 165.574 73.9503L164.252 77.4388ZM145.395 84.9207V127.587H152.857V84.9207H145.395ZM147.73 124.127L99.7624 143.478L102.554 150.397L150.522 131.047L147.73 124.127ZM102.482 143.45L51.5164 124.099L48.868 131.075L99.8338 150.425L102.482 143.45ZM53.9229 127.587V97.6071H46.4616V127.587H53.9229ZM98.9309 49.5725L98.7758 49.6311L101.413 56.6106L101.569 56.552L98.9309 49.5725ZM98.7758 49.6311L34.4287 73.949L37.0664 80.9286L101.413 56.6106L98.7758 49.6311ZM34.2443 80.8532L98.4412 109.117L101.448 102.288L37.2508 74.0244L34.2443 80.8532ZM98.6177 56.5507L98.7724 56.6094L101.417 49.6324L101.262 49.5738L98.6177 56.5507ZM98.7724 56.6094L162.93 80.9273L165.574 73.9503L101.417 49.6324L98.7724 56.6094ZM162.751 74.0234L98.4434 102.287L101.446 109.118L165.753 80.8541L162.751 74.0234ZM101.446 109.118L102.888 108.484L99.8856 101.653L98.4434 102.287L101.446 109.118ZM100.25 49.3316H99.94V56.7929H100.25V49.3316Z" fill="white"/>
</svg>
